PathFileType	4	(x/y/z)	S10_P20_T02
DataRate	CameraRate	NumFrames	NumMarkers	Units	OrigDataRate	OrigDataStartFrame	OrigNumFrames
240	240	4	51	mm	240	317	422
Frame#	Time	Sternum			R.Acromium			L.Acromium			Top.Head			R.ASIS			L.ASIS			R.PSIS			L.PSIS			R.Great.Tro			L.Great.Tro			R.Iliac.Crest			L.Iliac.Crest			V.Sacral			R.Thigh.Upper.Post			R.Thigh.Lower.Ant			R.Thigh.Lower.Post			R.Thigh.Upper.Ant			R.Knee.Lat			R.Knee.Med			R.Shank.Upper.Post			R.Shank.Lower.Ant			R.Shank.Lower.Post			R.Shank.Upper.Ant			R.Ankle.Lat			R.Ankle.Med			R.Heel.Upper			R.Heel.Med			R.Heel.Lat			R.Toe.Lat			R.Toe.Med			R.Toe.Tip			L.Thigh.Upper.Post			L.Thigh.Lower.Ant			L.Thigh.Lower.Post			L.Thigh.Upper.Ant			L.Knee.Lat			L.Knee.Med			L.Shank.Upper.Post			L.Shank.Lower.Ant			L.Shank.Lower.Post			L.Shank.Upper.Ant			L.Ankle.Lat			L.Ankle.Med			L.Heel.Upper			L.Heel.Med			L.Heel.Lat			L.Toe.Lat			L.Toe.Med			L.Toe.Tip			Cervical.Spine			Back			
		X1	Y1	Z1	X2	Y2	Z2	X3	Y3	Z3	X4	Y4	Z4	X5	Y5	Z5	X6	Y6	Z6	X7	Y7	Z7	X8	Y8	Z8	X9	Y9	Z9	X10	Y10	Z10	X11	Y11	Z11	X12	Y12	Z12	X13	Y13	Z13	X14	Y14	Z14	X15	Y15	Z15	X16	Y16	Z16	X17	Y17	Z17	X18	Y18	Z18	X19	Y19	Z19	X20	Y20	Z20	X21	Y21	Z21	X22	Y22	Z22	X23	Y23	Z23	X24	Y24	Z24	X25	Y25	Z25	X26	Y26	Z26	X27	Y27	Z27	X28	Y28	Z28	X29	Y29	Z29	X30	Y30	Z30	X31	Y31	Z31	X32	Y32	Z32	X33	Y33	Z33	X34	Y34	Z34	X35	Y35	Z35	X36	Y36	Z36	X37	Y37	Z37	X38	Y38	Z38	X39	Y39	Z39	X40	Y40	Z40	X41	Y41	Z41	X42	Y42	Z42	X43	Y43	Z43	X44	Y44	Z44	X45	Y45	Z45	X46	Y46	Z46	X47	Y47	Z47	X48	Y48	Z48	X49	Y49	Z49	X50	Y50	Z50	X51	Y51	Z51	

317	1.3167	419.31	1285.6	368.45	277.6	1441.6	506.81	310.43	1465.2	206.96	272.58	1759.1	384.03	368.1	1019.6	468.71	377.92	1034.9	238.73	171.74	1029.2	374.36	179.73	1039.1	292.64	302.59	936.1	536.88	321.13	966.23	179.26	263.54	1093.1	509.52	310.57	1105.4	208.77	156.45	998.44	333.93	388.79	737.83	543.77	464.37	679.19	506.74	410.8	650.76	539.81	442.78	767.65	505.84	426	523.43	503.85	434.07	525.54	373.67	252.99	372.6	493.73	273.89	283.33	488.61	213.48	310	490.36	319.74	345.55	495.32	171.01	208.36	472.81	193.6	206.79	395.64	100.86	197.27	413.92	95.312	167.53	388.45	86.094	178.83	449.08	211.89	77.343	520.61	250.44	57.726	420.26	303.41	46.643	469.07	273.2	691.04	202.6	343.41	610.35	230.32	271.52	598.92	230.92	351.49	697.18	203.23	300.7	511.37	245	319.4	516.99	371.99	204.74	309.96	259.69	256.8	213.3	277.97	195.95	233.74	273.48	265.99	288.5	263.3	205.36	109.88	290.9	222.57	124.79	376.66	134.04	82.006	340.31	144.91	48.986	372.66	138.63	52.489	308.19	313.92	40.751	263.81	345.39	44.15	372.04	399.08	52.533	321.66	218.44	1501.5	358.79	137.7	1293.1	338.41
318	1.3208	424.22	1286.2	368.5	282.19	1442	506.75	315.89	1466.1	207.07	277.78	1759.6	384.26	372.95	1020.3	468.48	382.84	1035.1	238.53	176.59	1029.8	374.34	184.64	1039.6	292.59	307.71	937.02	536.94	325.74	966.31	179.29	268.56	1093.9	509.27	315.58	1105.7	208.51	161.3	999	333.94	395.27	739.06	543.48	471.1	680.86	505.92	417.92	652.12	539.37	449.08	769.22	505.16	433.49	524.69	503.09	440.37	527.16	373.1	262.98	370.38	493.6	285.7	281.6	488.17	224.77	307	490.27	330.28	344.72	494.81	184.17	204.44	472.61	206.85	203.32	395.46	113.89	191.14	413.78	109.28	161.06	388.49	99.833	172.31	449.05	229.03	75.242	520.92	268.07	56.34	420.57	321.43	47.166	469.38	275.61	691.81	202.72	345.18	610.53	230.18	273.15	599.69	231.01	353.9	697.28	203.24	301.55	511.78	244.78	320.66	517.2	371.78	205.18	310.54	259.77	257.08	213.77	277.86	196.27	234.35	273.55	266.34	288.95	263.16	205.55	110.24	291.03	222.84	125.15	376.64	134.34	82.519	340.51	145.16	49.473	372.86	138.79	53.01	308.34	313.96	40.709	263.83	345.5	44.108	372.01	399.21	52.317	321.61	223.44	1502	358.63	142.79	1293.7	337.73
319	1.325	429.14	1286.8	368.54	286.81	1442.4	506.68	321.35	1467	207.18	282.96	1760.1	384.5	377.8	1021	468.28	387.76	1035.3	238.35	181.44	1030.3	374.33	189.56	1040	292.57	312.83	937.88	537	330.35	966.38	179.33	273.58	1094.6	509.04	320.59	1105.9	208.27	166.14	999.53	333.96	401.66	740.23	543.16	477.74	682.47	505.1	424.93	653.42	538.91	455.33	770.73	504.49	440.85	525.91	502.32	446.55	528.7	372.54	273.02	368.08	493.5	297.59	279.83	487.72	236.15	303.93	490.18	340.85	343.85	494.3	197.49	200.45	472.42	220.25	199.81	395.28	127.18	184.98	413.67	123.52	154.59	388.54	113.84	165.77	449.05	246.23	73.146	521.15	285.73	55.014	420.8	339.43	47.72	469.59	278.03	692.59	202.81	346.96	610.72	230.05	274.8	600.46	231.1	356.31	697.4	203.25	302.4	512.21	244.56	321.88	517.42	371.57	205.63	311.13	259.86	257.35	214.26	277.73	196.6	234.98	273.62	266.71	289.42	263.02	205.74	110.61	291.16	223.15	125.53	376.62	134.66	83.072	340.7	145.43	50.004	373.04	138.96	53.565	308.49	314	40.665	263.85	345.6	44.068	371.98	399.34	52.105	321.56	228.46	1502.4	358.48	147.9	1294.2	337.06
320	1.3292	434.07	1287.4	368.58	291.45	1442.7	506.62	326.81	1467.8	207.3	288.12	1760.5	384.75	382.67	1021.7	468.09	392.68	1035.4	238.18	186.3	1030.8	374.34	194.48	1040.5	292.57	317.97	938.7	537.08	334.96	966.43	179.39	278.61	1095.3	508.82	325.62	1106	208.05	171	1000	334.01	407.97	741.33	542.83	484.27	684	504.28	431.84	654.66	538.41	461.51	772.17	503.82	448.1	527.09	501.56	452.63	530.14	371.99	283.11	365.72	493.41	309.54	278.04	487.28	247.62	300.81	490.09	351.44	342.94	493.79	210.97	196.41	472.25	233.78	196.27	395.12	140.73	178.81	413.61	138	148.16	388.61	128.11	159.22	449.07	263.5	71.066	521.31	303.42	53.756	420.94	357.39	48.312	469.69	280.47	693.37	202.87	348.73	610.92	229.93	276.45	601.24	231.18	358.73	697.52	203.27	303.26	512.65	244.34	323.09	517.64	371.36	206.1	311.75	259.93	257.64	214.77	277.6	196.95	235.62	273.69	267.08	289.91	262.87	205.94	111.01	291.27	223.51	125.93	376.6	134.99	83.664	340.86	145.7	50.581	373.21	139.13	54.151	308.63	314.03	40.618	263.86	345.71	44.032	371.94	399.47	51.897	321.5	233.5	1502.9	358.33	153.01	1294.7	336.4
